<?xml version="1.0" encoding="UTF-8" standalone="no"?>
<!-- Created with Inkscape (http://www.inkscape.org/) -->

<svg
   width="600"
   height="160"
   viewBox="0 0 158.748 42.3328"
   version="1.1"
   id="svg357508"
   sodipodi:docname="logo.svg"
   inkscape:version="1.1.2 (b8e25be833, 2022-02-05)"
   xmlns:inkscape="http://www.inkscape.org/namespaces/inkscape"
   xmlns:sodipodi="http://sodipodi.sourceforge.net/DTD/sodipodi-0.dtd"
   xmlns:xlink="http://www.w3.org/1999/xlink"
   xmlns="http://www.w3.org/2000/svg"
   xmlns:svg="http://www.w3.org/2000/svg"
   xmlns:rdf="http://www.w3.org/1999/02/22-rdf-syntax-ns#"
   xmlns:cc="http://creativecommons.org/ns#"
   xmlns:dc="http://purl.org/dc/elements/1.1/">
  <title
     id="title359582">yacht2yacht</title>
  <sodipodi:namedview
     id="namedview357510"
     pagecolor="#ffffff"
     bordercolor="#666666"
     borderopacity="1.0"
     inkscape:pageshadow="2"
     inkscape:pageopacity="0.0"
     inkscape:pagecheckerboard="true"
     inkscape:document-units="px"
     showgrid="false"
     fit-margin-top="0"
     fit-margin-left="0"
     fit-margin-right="0"
     fit-margin-bottom="0"
     inkscape:zoom="1"
     inkscape:cx="419"
     inkscape:cy="-10"
     inkscape:window-width="2160"
     inkscape:window-height="1334"
     inkscape:window-x="-11"
     inkscape:window-y="-11"
     inkscape:window-maximized="1"
     inkscape:current-layer="layer1"
     units="px"
     width="600px"
     lock-margins="true"
     borderlayer="false"
     scale-x="0.9"
     inkscape:snap-global="false"
     inkscape:snap-bbox="true"
     inkscape:lockguides="false"
     inkscape:snap-bbox-edge-midpoints="true" />
  <defs
     id="defs357505">
    <color-profile
       name="sRGB-IEC61966-2.1"
       xlink:href="../../../../WINDOWS/system32/spool/drivers/color/sRGB%20Color%20Space%20Profile.icm"
       id="color-profile371074" />
  </defs>
  <g
     inkscape:label="Layer 1"
     inkscape:groupmode="layer"
     id="layer1"
     transform="translate(287.97324,-39.047502)">
    <g
       id="g370939">
      <path
         style="fill:#c8f4fe;stroke-width:0.0506545"
         d="m -140.65864,61.635208 c -3.29635,-0.143945 -7.51964,-0.875762 -13.8448,-2.399043 -1.31035,-0.315571 -3.27613,-0.802944 -7.36149,-1.825131 -3.91996,-0.980802 -5.75424,-1.319242 -8.66352,-1.598494 -1.34483,-0.129086 -4.60731,-0.128915 -5.75899,3.87e-4 -3.42966,0.384815 -6.22478,1.307739 -8.07587,2.666587 -0.21303,0.156382 -0.38733,0.270137 -0.38733,0.25279 0,-0.04145 0.31371,-0.466578 0.88087,-1.193697 1.32815,-1.702767 2.93501,-2.782305 5.10988,-3.433002 3.04308,-0.910448 6.70202,-1.050897 11.28621,-0.433223 1.48956,0.200706 4.28271,0.668701 5.30829,0.889407 1.60667,0.345768 5.34742,1.21676 5.85914,1.364237 0.15148,0.04366 1.81908,0.479611 3.70578,0.968781 8.24445,2.137566 10.64034,2.567841 14.24723,2.558652 1.72335,-0.0044 2.25324,-0.04097 3.25508,-0.224696 2.49839,-0.458185 3.84036,-1.00634 4.82764,-1.971962 l 0.52388,-0.512377 -0.2321,0.449578 c -1.5085,2.921959 -5.0625,4.686585 -10.6799,4.441286 z"
         id="path368854"
         sodipodi:nodetypes="cssscssssssssssscscc" />
      <path
         style="fill:#d6b062;stroke-width:0.0511397"
         d="m -140.50356,61.6356 c -4.02487,-0.174504 -8.48802,-1.029357 -19.16419,-3.670621 -4.38299,-1.084345 -5.30795,-1.299167 -6.71416,-1.559354 -7.01758,-1.298439 -14.26616,0.223902 -18.29108,2.302544 -0.31704,0.163736 0.23151,-0.157094 1.10199,-0.768119 0,0 0.49553,-0.304559 1.05252,-0.624459 2.41679,-1.388065 4.89998,-1.979032 8.80209,-1.984921 3.43612,-0.0052 6.40132,0.428857 11.18856,1.637776 7.7348,1.953257 15.39241,3.562494 18.95961,4.025382 7.4681,0.969078 11.25851,-0.505965 13.29153,-3.476337 l 0.52768,-0.770973 -0.37331,0.68266 c -1.51302,2.76683 -5.1806,4.431904 -10.38124,4.206422 z"
         id="path368002"
         sodipodi:nodetypes="sssssssssscss" />
      <path
         style="fill:#f10404;stroke-width:0.0509184"
         d="m -252.83255,81.318096 c -4.18071,-0.433298 -7.21557,-2.923884 -7.91625,-6.496547 -0.86035,-4.386828 1.28981,-8.417715 5.19134,-9.732153 1.84683,-0.622204 4.7335,-0.693086 7.42626,-0.182353 0.38391,0.07282 0.95916,0.15798 1.27833,0.189257 0.32475,0.03182 0.6116,0.08586 0.65138,0.122715 0.0601,0.05572 0.0622,0.194749 0.0134,0.90364 -0.0317,0.460783 -0.0698,1.29425 -0.0846,1.852148 -0.0289,1.086766 -0.0665,1.27204 -0.25854,1.27204 -0.15806,0 -0.20178,-0.109174 -0.23664,-0.590868 -0.10138,-1.400789 -0.8225,-2.229962 -2.40626,-2.766837 -1.87189,-0.634543 -4.98044,-0.485371 -6.53475,0.31359 -0.98727,0.50749 -1.91201,1.490037 -2.39973,2.549751 -0.54232,1.178341 -0.80205,3.682307 -0.5336,5.144234 0.82111,4.471613 4.97467,7.130835 9.70966,6.216397 1.20401,-0.232523 2.05955,-1.1406 2.37961,-2.525714 0.081,-0.350325 0.15549,-0.45088 0.29969,-0.404278 0.20872,0.06745 0.21655,0.224433 0.0588,1.177609 -0.16528,0.998349 -0.374,1.91212 -0.49648,2.173642 -0.14778,0.315549 -0.78377,0.559995 -1.86166,0.71555 -0.65094,0.09394 -3.58103,0.140614 -4.27994,0.06818 z m -29.70914,-0.255014 c -0.10276,-0.06444 -0.11619,-0.220831 -0.0252,-0.293823 0.0347,-0.02784 0.20711,-0.06522 0.38316,-0.08307 0.38658,-0.0392 0.73391,-0.186472 0.81826,-0.346953 0.19916,-0.378908 0.21446,-0.575391 0.23606,-3.031534 0.0247,-2.810057 0.005,-3.019434 -0.35091,-3.738563 -0.29452,-0.595012 -3.49601,-5.770019 -4.16789,-6.737142 -0.31025,-0.446578 -0.95588,-1.091724 -1.28332,-1.282348 -0.23175,-0.13492 -0.37836,-0.18044 -0.93687,-0.290891 -0.0973,-0.01924 -0.11401,-0.0504 -0.10093,-0.188282 l 0.0157,-0.16522 h 2.27076 2.27077 l 0.0158,0.113094 c 0.0127,0.09065 -0.0345,0.139066 -0.23788,0.243985 -0.32995,0.17024 -0.38331,0.27282 -0.30807,0.592196 0.0652,0.276612 0.0515,0.25216 1.44758,2.595928 0.55547,0.932543 1.36718,2.296677 1.80382,3.031407 0.43664,0.734731 0.82746,1.389152 0.8685,1.45427 0.0723,0.114742 0.0914,0.08859 0.61849,-0.847765 0.29914,-0.531389 1.09382,-1.900044 1.76596,-3.041455 1.34624,-2.286164 1.42115,-2.42382 1.53891,-2.827957 0.15212,-0.522037 0.0846,-0.732521 -0.29774,-0.928355 -0.24472,-0.125341 -0.34689,-0.283885 -0.23024,-0.357291 0.0648,-0.04075 4.0197,-0.06123 4.15422,-0.02151 0.25454,0.07515 -0.009,0.378805 -0.32821,0.378805 -0.59284,0 -1.2538,0.433629 -1.91873,1.258804 -0.7814,0.969714 -3.69298,5.645929 -4.27027,6.858364 l -0.23201,0.487273 -0.0148,2.467064 c -0.025,4.170438 -0.0109,4.211263 1.49253,4.323574 0.55924,0.04178 0.69196,0.140114 0.48015,0.355781 -0.0787,0.08009 -0.20793,0.08409 -1.55169,0.04804 -0.80623,-0.02163 -1.48859,-0.03961 -1.51634,-0.03995 -0.0278,-3.89e-4 -0.56138,0.01503 -1.18584,0.03415 -0.78025,0.02389 -1.16301,0.01744 -1.22369,-0.02061 z m 6.83249,-0.04255 c -0.21124,-0.215082 -0.0969,-0.288259 0.52827,-0.33817 0.86946,-0.06941 1.31371,-0.411161 1.77452,-1.365087 0.14334,-0.296719 1.11074,-2.770655 2.14979,-5.497637 3.83483,-10.064507 3.53013,-9.307487 3.76026,-9.342218 0.27978,-0.04222 0.0569,-0.565854 4.36985,10.267054 1.11598,2.803035 1.28735,3.22348 1.66488,4.084693 0.55139,1.257849 1.32372,1.875362 2.34552,1.875362 0.24899,0 0.4295,0.103704 0.39046,0.224327 -0.0591,0.182676 -0.21867,0.194318 -2.23118,0.162789 -2.62463,-0.04112 -2.74622,-0.06392 -2.29779,-0.430848 0.112,-0.09165 0.20364,-0.201322 0.20364,-0.243724 0,-0.06638 -0.48777,-1.315673 -1.75338,-4.490864 l -0.29696,-0.745007 -2.62673,-0.0133 c -2.06362,-0.01045 -2.63747,5.83e-4 -2.67683,0.05138 -0.0785,0.101294 -1.4585,3.990379 -1.51798,4.277821 -0.18833,0.910069 -0.0236,1.207425 0.6688,1.207425 0.29679,0 0.38157,0.03978 0.38157,0.179034 0,0.231346 -0.0728,0.243431 -1.19603,0.198555 -0.57723,-0.02306 -1.07974,-0.03878 -1.11669,-0.03494 -0.037,0.0038 -0.59607,0.02375 -1.24248,0.04425 -1.15206,0.03652 -1.17739,0.03512 -1.28151,-0.07089 z m 10.18561,-6.899849 c 0,-0.03224 -0.22968,-0.685402 -0.51041,-1.451477 -0.28073,-0.766077 -0.75535,-2.063372 -1.05472,-2.88288 -0.76036,-2.081445 -0.72655,-2.033806 -0.9661,-1.36113 -0.34915,0.980422 -1.95983,5.674977 -1.95983,5.712197 0,0.02305 1.01049,0.0419 2.24553,0.0419 1.64812,0 2.24553,-0.01559 2.24553,-0.05862 z m 21.07546,6.931693 c -0.0578,-0.04411 -0.0865,-0.118587 -0.0757,-0.196588 0.0161,-0.11612 0.0455,-0.128421 0.39062,-0.163462 1.12297,-0.114012 1.11539,-0.05846 1.11539,-8.178836 0,-5.830269 -0.0146,-6.315755 -0.203,-6.749429 -0.1336,-0.307507 -0.41403,-0.429716 -1.05789,-0.461016 -0.56148,-0.02729 -0.73066,-0.135258 -0.53082,-0.338741 0.0648,-0.06601 0.42965,-0.07678 2.61138,-0.07705 1.39481,-1.56e-4 2.57575,0.01115 2.62432,0.02515 0.0582,0.01678 0.0883,0.07655 0.0883,0.175164 0,0.166702 -0.0296,0.179528 -0.51079,0.221114 -0.42089,0.03638 -0.68525,0.193469 -0.81807,0.486125 -0.10723,0.23627 -0.10957,0.293759 -0.12431,3.054114 l -0.015,2.813313 4.63224,-0.01311 4.63223,-0.01311 0.0137,-1.515703 c 0.0194,-2.15492 -0.051,-3.901672 -0.17184,-4.264534 -0.13031,-0.391214 -0.37694,-0.518582 -1.06942,-0.552298 -0.46734,-0.02275 -0.61424,-0.07646 -0.61424,-0.224549 0,-0.185318 0.0845,-0.191348 2.68674,-0.191676 1.39481,-1.56e-4 2.57575,0.01115 2.62432,0.02515 0.11395,0.03286 0.12056,0.30322 0.008,0.347012 -0.0439,0.01715 -0.19717,0.03244 -0.34061,0.03398 -0.56222,0.006 -0.84139,0.218862 -0.982,0.748664 -0.10114,0.381108 -0.1528,10.086794 -0.0644,12.093485 0.10288,2.334465 0.14291,2.407978 1.38602,2.54524 0.33585,0.03708 0.61781,0.06916 0.6266,0.07128 0.009,0.0021 0.009,0.06701 0,0.144199 -0.0256,0.224745 -0.15252,0.238923 -1.6876,0.188468 -0.80576,-0.02648 -1.88849,-0.02737 -2.53494,-0.0021 -1.26294,0.04942 -1.38743,0.03006 -1.36011,-0.211575 0.015,-0.132998 0.0342,-0.142905 0.34393,-0.177514 0.41415,-0.04628 0.73956,-0.171205 0.83588,-0.320884 0.22415,-0.348325 0.34059,-2.500496 0.31424,-5.808036 l -0.0148,-1.849672 -4.63364,-0.01311 -4.63364,-0.01311 0.0212,3.378489 c 0.0289,4.60036 -0.0111,4.455105 1.26387,4.591311 0.73813,0.07886 0.74099,0.07972 0.74099,0.224982 0,0.235178 -0.10725,0.248913 -1.61138,0.206346 -0.76509,-0.02165 -1.41379,-0.03978 -1.44154,-0.04028 -0.0277,-5.83e-4 -0.57274,0.0159 -1.21107,0.03644 -0.95197,0.03064 -1.17735,0.02459 -1.25371,-0.03366 z m 21.29949,0.01039 c -0.0486,-0.03028 -0.0883,-0.10905 -0.0883,-0.175036 0,-0.107742 0.0296,-0.123553 0.29015,-0.155029 0.90267,-0.109048 1.0584,-0.300031 1.17593,-1.442105 0.0319,-0.30964 0.0646,-3.062371 0.0827,-6.948122 l 0.0299,-6.435316 -0.6001,0.0027 c -1.34162,0.006 -3.54425,0.0947 -3.80439,0.153136 -0.58038,0.130366 -0.90425,0.418859 -1.19201,1.061803 -0.15761,0.352129 -0.18174,0.380644 -0.30946,0.365675 -0.20918,-0.02451 -0.20137,-0.206862 0.0607,-1.416611 0.35028,-1.616798 0.33964,-1.598707 0.82563,-1.403662 0.54254,0.217743 1.01512,0.235051 6.41817,0.235051 4.84603,0 5.15393,-0.0054 5.71798,-0.10047 0.51796,-0.08729 0.60225,-0.09066 0.64261,-0.02569 0.10419,0.167702 -0.01,2.801528 -0.12618,2.920212 -0.0611,0.06223 -0.10056,0.06828 -0.16699,0.02561 -0.0896,-0.05756 -0.11541,-0.138894 -0.20766,-0.654988 -0.097,-0.542782 -0.45875,-0.829818 -1.24376,-0.986929 -0.37424,-0.07489 -2.23994,-0.166806 -3.51846,-0.173329 l -0.492,-0.0025 0.002,6.204108 c 0.002,7.096064 0.0237,7.678848 0.30905,8.1642 0.14658,0.249367 0.60135,0.380485 1.53132,0.441511 0.17753,0.01165 0.20373,0.02985 0.21748,0.151085 0.0285,0.251085 -0.0684,0.264469 -1.60114,0.221188 -0.76545,-0.02162 -1.41442,-0.03964 -1.44218,-0.04004 -0.0277,-3.89e-4 -0.58409,0.01485 -1.2363,0.03394 -0.81209,0.02375 -1.21368,0.01732 -1.27415,-0.02038 z M -194.3271,66.40811 c 1.05942,-2.820129 3.25734,-7.080965 5.06813,-9.824954 1.83739,-2.784294 5.16967,-6.822997 8.28063,-10.03607 l 1.01003,-1.043178 -0.45315,0.02747 c -0.24923,0.01511 -1.10032,0.0401 -1.8913,0.05554 -9.2316,0.180221 -20.7163,1.348141 -31.86381,3.240351 -16.78146,2.84853 -35.14988,7.736741 -49.80794,13.254911 -0.0692,0.02604 -0.0851,0.02122 -0.0505,-0.01532 0.21567,-0.227879 7.54185,-3.360357 11.33077,-4.844738 23.30601,-9.130556 50.29314,-14.822151 75.89173,-16.00559 1.69066,-0.07816 6.76183,-0.16474 6.76183,-0.115445 0,0.01437 -0.14192,0.126458 -0.31538,0.249082 -7.00983,4.955437 -15.65877,13.913632 -22.86409,23.681643 -0.55163,0.747821 -1.01417,1.389427 -1.02788,1.425789 -0.0137,0.03636 -0.0446,0.06611 -0.0687,0.06611 -0.0247,0 -0.0248,-0.05053 -5.8e-4,-0.115604 z m -73.56817,-9.404479 c 0.19651,-0.195209 6.93658,-3.642932 10.01658,-5.123748 9.89703,-4.758321 19.50784,-8.7408 30.00199,-12.432069 l 1.13807,-0.400312 1.5856,0.843085 c 0.87208,0.463696 1.60595,0.863804 1.63082,0.889127 0.0266,0.02714 -0.0972,0.08821 -0.30152,0.148727 -15.19207,4.498969 -31.19158,10.313838 -42.86047,15.577223 -1.32754,0.598804 -1.30201,0.588306 -1.21107,0.497967 z m 10.82047,-0.8015 c 0.0324,-0.05344 3.12094,-1.451941 5.15056,-2.332216 9.88706,-4.288171 20.32981,-8.042055 31.13467,-11.192071 2.90001,-0.845456 4.88785,-1.388402 5.00372,-1.366679 0.12488,0.02341 3.24257,1.893704 3.24508,1.946711 9.5e-4,0.01919 -0.12893,0.06175 -0.28851,0.09458 -5.18033,1.065696 -15.58686,3.713149 -22.62912,5.756919 -7.64232,2.217916 -17.27322,5.386903 -21.40178,7.042124 -0.13366,0.05359 -0.23024,0.07637 -0.21462,0.05063 z"
         id="path358706" />
      <path
         id="path366954"
         style="fill:#308bc3;stroke-width:0.0509184"
         d="m -168.33288,81.415965 c -0.0833,-0.0116 -0.3671,-0.0458 -0.63077,-0.076 -4.19649,-0.48071 -7.14341,-3.22565 -7.64491,-7.12091 -0.53212,-4.1331 1.59373,-7.79304 5.25012,-9.03881 1.96326,-0.66891 4.61989,-0.72162 7.70777,-0.15295 0.38266,0.0705 0.89918,0.14376 1.14781,0.16288 0.28859,0.0222 0.47314,0.0606 0.51034,0.10624 0.044,0.054 0.0442,0.27594 9.5e-4,0.90463 -0.0315,0.45823 -0.0688,1.28831 -0.0829,1.84463 -0.0276,1.08727 -0.0659,1.27491 -0.25986,1.27491 -0.1512,0 -0.22054,-0.1396 -0.22163,-0.4462 -0.007,-2.03595 -1.73412,-3.19629 -4.89387,-3.28827 -3.06701,-0.0893 -4.95838,0.74812 -6.15827,2.72652 -0.61153,1.00832 -0.95926,2.7983 -0.88949,4.57884 0.19577,4.99587 4.61121,8.29815 9.75538,7.296 1.21898,-0.23748 2.06402,-1.13216 2.38617,-2.52634 0.081,-0.35032 0.15549,-0.45088 0.29969,-0.40427 0.24943,0.0806 0.22511,0.50077 -0.1265,2.18554 -0.24107,1.15506 -0.32224,1.32732 -0.7087,1.50391 -0.76124,0.34784 -1.56861,0.45268 -3.64998,0.47398 -0.902,0.009 -1.70812,0.007 -1.79138,-0.004 z m -23.00257,-0.28909 c -0.0577,-0.0445 -0.0865,-0.11957 -0.0757,-0.1974 0.0165,-0.11928 0.0398,-0.12731 0.46527,-0.1603 0.99536,-0.0772 1.39971,-0.37173 1.9015,-1.38518 0.10684,-0.21577 1.40118,-3.54505 2.87632,-7.3984 1.47513,-3.85336 2.72538,-7.09256 2.77833,-7.19824 0.0967,-0.19304 0.27036,-0.28623 0.42255,-0.22676 0.14106,0.0551 0.53106,0.99557 3.50801,8.45927 2.31978,5.81607 2.40748,6.02251 2.82839,6.658 0.4838,0.73045 0.95502,1.01804 1.77641,1.08415 0.55229,0.0445 0.72632,0.23251 0.35387,0.38238 -0.15239,0.0613 -3.81031,0.0213 -4.2779,-0.0468 -0.28015,-0.0408 -0.39329,-0.22363 -0.18087,-0.29228 0.15754,-0.0509 0.31425,-0.28191 0.27654,-0.40764 -0.0711,-0.23703 -2.0015,-5.04442 -2.04959,-5.10421 -0.0401,-0.0499 -0.63693,-0.0642 -2.67205,-0.0642 h -2.62039 l -0.0683,0.16699 c -0.22918,0.5603 -1.40445,3.89835 -1.46578,4.16317 -0.0916,0.39556 -0.0943,0.85544 -0.006,0.97426 0.10481,0.14055 0.40637,0.2446 0.7089,0.2446 0.29097,0 0.41863,0.0995 0.35254,0.27489 -0.0504,0.13388 -0.17429,0.14413 -1.23222,0.10198 -0.56895,-0.0227 -1.0647,-0.0381 -1.10165,-0.0342 -0.59999,0.0624 -2.41975,0.0668 -2.49852,0.006 z m 10.1976,-6.96381 c -0.0439,-0.1591 -2.162,-5.88673 -2.21254,-5.98288 -0.062,-0.11801 -0.17559,-0.11948 -0.22017,-0.003 -0.0189,0.0495 -0.48993,1.40781 -1.04673,3.01856 -0.55679,1.61076 -1.02304,2.95755 -1.03611,2.99288 -0.0188,0.0508 0.45362,0.0642 2.25828,0.0642 2.14918,0 2.28061,-0.005 2.25727,-0.0899 z m 20.88661,6.96335 c -0.0578,-0.0443 -0.0865,-0.11901 -0.0757,-0.19694 0.0161,-0.11612 0.0455,-0.12842 0.39063,-0.16346 1.12297,-0.11401 1.11539,-0.0585 1.11539,-8.17884 0,-5.83027 -0.0146,-6.31576 -0.203,-6.74943 -0.1336,-0.30751 -0.41403,-0.42972 -1.05789,-0.46102 -0.56148,-0.0273 -0.73066,-0.13525 -0.53081,-0.33874 0.0648,-0.066 0.42964,-0.0768 2.61137,-0.0771 1.39481,-1.6e-4 2.57575,0.0112 2.62432,0.0252 0.0582,0.0168 0.0883,0.0765 0.0883,0.17516 0,0.1667 -0.0296,0.17953 -0.51079,0.22111 -0.42089,0.0364 -0.68525,0.19347 -0.81807,0.48613 -0.10723,0.23627 -0.10957,0.29376 -0.12431,3.05411 l -0.015,2.81332 4.63224,-0.0131 4.63223,-0.0131 -0.008,-2.50198 c -0.008,-2.5393 -0.0401,-3.07026 -0.20436,-3.42263 -0.12065,-0.25888 -0.42187,-0.37912 -1.023,-0.40834 -0.56148,-0.0273 -0.73066,-0.13526 -0.53081,-0.33874 0.0648,-0.066 0.42964,-0.0768 2.61137,-0.0771 1.39481,-1.5e-4 2.57575,0.0112 2.62432,0.0251 0.0582,0.0168 0.0883,0.0765 0.0883,0.17516 0,0.16765 -0.0397,0.18472 -0.50462,0.2169 -0.53773,0.0372 -0.76,0.22152 -0.8997,0.74597 -0.0994,0.37304 -0.14958,9.98093 -0.0629,12.03373 0.0994,2.35305 0.14881,2.45305 1.27235,2.57332 0.7692,0.0823 0.75892,0.079 0.7405,0.24057 -0.0254,0.22269 -0.1551,0.23704 -1.68742,0.18668 -0.80576,-0.0265 -1.8885,-0.0274 -2.53494,-0.002 -1.26295,0.0494 -1.38743,0.0301 -1.36012,-0.21157 0.015,-0.133 0.0342,-0.14291 0.34393,-0.17752 0.41749,-0.0466 0.73973,-0.17146 0.83834,-0.32469 0.21979,-0.34154 0.33655,-2.50809 0.31144,-5.77854 l -0.0144,-1.87536 -4.63364,-0.0131 -4.63364,-0.0131 0.0212,3.37849 c 0.0286,4.54944 5e-5,4.4361 1.15412,4.58286 0.232,0.0295 0.51265,0.0596 0.62366,0.0669 0.17753,0.0117 0.20373,0.0298 0.21748,0.15109 0.0286,0.25169 -0.0689,0.26519 -1.60178,0.22181 -0.76509,-0.0216 -1.41378,-0.0397 -1.44154,-0.04 -0.0277,-3.9e-4 -0.57274,0.0162 -1.21107,0.0368 -0.95475,0.0308 -1.17712,0.0248 -1.25371,-0.0339 z m 21.49586,-5.8e-4 c -0.16159,-0.12358 -0.0849,-0.26237 0.16989,-0.30761 0.66776,-0.11854 0.75071,-0.14807 0.89901,-0.32004 0.35189,-0.40807 0.36515,-0.67672 0.3966,-8.03056 l 0.0277,-6.48669 -0.57357,0.003 c -1.35351,0.007 -3.57257,0.0953 -3.82832,0.15288 -0.58057,0.13066 -0.90429,0.41905 -1.19202,1.06192 -0.1576,0.35213 -0.18173,0.38065 -0.30945,0.36568 -0.20919,-0.0245 -0.20137,-0.20686 0.0607,-1.41661 0.35057,-1.61812 0.33921,-1.59889 0.82848,-1.40252 0.53592,0.21508 1.06035,0.23391 6.51625,0.23391 4.72745,0 5.20951,-0.008 5.60514,-0.0899 0.23807,-0.0495 0.48218,-0.0899 0.54246,-0.0899 h 0.10961 v 1.40725 c 0,1.31609 -0.006,1.41511 -0.0978,1.52855 -0.18588,0.23062 -0.29991,0.0567 -0.38129,-0.58141 -0.0392,-0.30754 -0.19572,-0.54188 -0.48067,-0.71973 -0.47637,-0.29733 -1.11155,-0.38005 -3.29474,-0.42908 l -1.50431,-0.0338 0.0221,6.64581 c 0.0152,4.55067 0.0399,6.75109 0.0784,6.97977 0.15529,0.92264 0.36039,1.08411 1.47987,1.16502 0.46795,0.0338 0.58715,0.10244 0.51419,0.29603 -0.051,0.13533 -0.2218,0.14583 -1.6747,0.10293 -0.76873,-0.0227 -1.40905,-0.0396 -1.42293,-0.0375 -0.0139,0.002 -0.55886,0.0197 -1.21107,0.0391 -0.97656,0.0291 -1.20239,0.0227 -1.27964,-0.0364 z m -58.28913,-0.0521 c -0.0421,-0.024 -0.0762,-0.0714 -0.0758,-0.10532 0.002,-0.14345 0.10555,-0.20043 0.44368,-0.24366 0.65447,-0.0837 0.80407,-0.20104 0.95993,-0.75307 0.13334,-0.47224 0.12617,-5.29764 -0.009,-5.74211 -0.18345,-0.60535 -0.488,-1.12276 -3.23724,-5.49984 -1.65717,-2.63837 -2.11097,-3.13171 -3.05337,-3.31938 -0.1804,-0.0359 -0.35638,-0.0869 -0.39107,-0.11333 -0.0793,-0.0603 -0.082,-0.22295 -0.005,-0.27166 0.0852,-0.0536 4.39117,-0.0637 4.49569,-0.0106 0.14695,0.0747 0.1001,0.18731 -0.12615,0.30314 -0.43568,0.22304 -0.5084,0.4744 -0.26955,0.93179 0.34341,0.65763 4.03647,6.82079 4.06604,6.78562 0.019,-0.0226 0.14321,-0.34091 0.27601,-0.70736 2.38343,-6.57659 7.66003,-11.09624 14.66129,-12.55808 3.44268,-0.71883 7.87846,-0.83037 11.22766,-0.28232 2.69254,0.44058 5.14217,1.39646 6.72398,2.62378 0.43333,0.33623 0.46315,0.41445 0.10092,0.26476 -3.14986,-1.30169 -8.38262,-2.04308 -12.62796,-1.78915 -6.30503,0.37713 -10.47829,1.90234 -14.08974,5.14944 -2.2419,2.01571 -4.30855,5.05136 -5.39585,7.92579 l -0.19435,0.5138 -0.0153,1.82398 c -0.0172,2.05222 0.0462,3.59036 0.16413,3.98771 0.15517,0.52267 0.4067,0.66657 1.26404,0.72317 0.52526,0.0347 0.63077,0.0758 0.63077,0.24562 0,0.0734 -0.0357,0.13347 -0.0883,0.14863 -0.15373,0.0443 -5.35617,0.0143 -5.43632,-0.0314 z m -16.64533,-0.0811 c -0.0459,-0.0517 -0.0835,-0.17139 -0.0835,-0.26601 0,-0.20111 0.20649,-0.42108 1.56431,-1.66646 3.10745,-2.85015 4.52359,-4.38598 5.6642,-6.14295 0.82214,-1.26642 1.39279,-2.59129 1.65979,-3.85349 0.18017,-0.85173 0.16969,-2.64424 -0.0196,-3.3545 -0.50303,-1.88741 -1.94109,-3.02259 -3.8192,-3.0148 -2.00964,0.008 -3.22869,1.13349 -3.36595,3.10669 -0.0372,0.5342 -0.0777,0.64224 -0.24098,0.64224 -0.20634,0 -0.22653,-0.0947 -0.30592,-1.43418 -0.11427,-1.92794 -0.10842,-2.18112 0.0534,-2.31073 0.30628,-0.24531 1.78831,-0.71906 2.66321,-0.85133 4.68721,-0.70865 7.69245,1.56575 7.39532,5.59685 -0.2492,3.38091 -2.64696,6.84204 -7.88028,11.37508 -0.40937,0.35459 -0.7443,0.66675 -0.7443,0.69368 0,0.0648 5.07796,0.002 5.85351,-0.0721 1.82217,-0.17474 2.66212,-0.79683 3.07686,-2.27878 0.1108,-0.39588 0.22393,-0.55717 0.3751,-0.53475 0.2547,0.0378 0.19871,0.54378 -0.27736,2.50703 -0.38293,1.5791 -0.49024,1.78677 -0.98343,1.90324 -0.11182,0.0264 -2.43946,0.0473 -5.34979,0.048 -4.9278,0.001 -5.15549,-0.003 -5.23537,-0.0927 z" />
    </g>
  </g>
  <metadata
     id="metadata359576">
    <rdf:RDF>
      <cc:Work
         rdf:about="">
        <dc:title>yacht2yacht</dc:title>
      </cc:Work>
    </rdf:RDF>
  </metadata>
</svg>
